<?xml version="1.0" encoding="utf-8" ?>
<svg baseProfile="tiny" height="215" version="1.2" width="195" xmlns="http://www.w3.org/2000/svg" xmlns:ev="http://www.w3.org/2001/xml-events" xmlns:xlink="http://www.w3.org/1999/xlink"><defs /><rect fill="black" height="100%" width="100%" x="0" y="0" /><rect fill="#FF5733" height="15" width="40.0" x="10" y="10" /><text fill="#FF5733" font-family="Arial" font-size="15px" x="60.0" y="23">Python: 26.67%</text><rect fill="#33FF57" height="15" width="35.0" x="10" y="30" /><text fill="#33FF57" font-family="Arial" font-size="15px" x="55.0" y="43">HTML: 23.33%</text><rect fill="#3357FF" height="15" width="30.0" x="10" y="50" /><text fill="#3357FF" font-family="Arial" font-size="15px" x="50.0" y="63">CSS: 20.00%</text><rect fill="#F333FF" height="15" width="20.0" x="10" y="70" /><text fill="#F333FF" font-family="Arial" font-size="15px" x="40.0" y="83">Kotlin: 13.33%</text><rect fill="#33FFF5" height="15" width="10.0" x="10" y="90" /><text fill="#33FFF5" font-family="Arial" font-size="15px" x="30.0" y="103">C: 6.67%</text><rect fill="#FF33A1" height="15" width="5.0" x="10" y="110" /><text fill="#FF33A1" font-family="Arial" font-size="15px" x="25.0" y="123">Makefile: 3.33%</text><rect fill="#A1FF33" height="15" width="5.0" x="10" y="130" /><text fill="#A1FF33" font-family="Arial" font-size="15px" x="25.0" y="143">JavaScript: 3.33%</text><rect fill="#FF8C33" height="15" width="5.0" x="10" y="150" /><text fill="#FF8C33" font-family="Arial" font-size="15px" x="25.0" y="163">Java: 3.33%</text><rect fill="#FF5733" height="15" width="40.0" x="10" y="190" /><rect fill="#33FF57" height="15" width="35.0" x="50.0" y="190" /><rect fill="#3357FF" height="15" width="30.0" x="85.0" y="190" /><rect fill="#F333FF" height="15" width="20.0" x="115.0" y="190" /><rect fill="#33FFF5" height="15" width="10.0" x="135.0" y="190" /><rect fill="#FF33A1" height="15" width="5.0" x="145.0" y="190" /><rect fill="#A1FF33" height="15" width="5.0" x="150.0" y="190" /><rect fill="#FF8C33" height="15" width="5.0" x="155.0" y="190" /></svg>