<?xml version="1.0" encoding="utf-8" ?>
<svg baseProfile="tiny" height="195" version="1.2" width="195" xmlns="http://www.w3.org/2000/svg" xmlns:ev="http://www.w3.org/2001/xml-events" xmlns:xlink="http://www.w3.org/1999/xlink"><defs /><rect fill="black" height="100%" width="100%" x="0" y="0" /><rect fill="#FF5733" height="15" width="42.8571" x="10" y="10" /><text fill="#FF5733" font-family="Arial" font-size="15px" x="62.857142857142854" y="23">Python: 28.57%</text><rect fill="#33FF57" height="15" width="32.1429" x="10" y="30" /><text fill="#33FF57" font-family="Arial" font-size="15px" x="52.14285714285714" y="43">CSS: 21.43%</text><rect fill="#3357FF" height="15" width="32.1429" x="10" y="50" /><text fill="#3357FF" font-family="Arial" font-size="15px" x="52.14285714285714" y="63">HTML: 21.43%</text><rect fill="#F333FF" height="15" width="21.4286" x="10" y="70" /><text fill="#F333FF" font-family="Arial" font-size="15px" x="41.42857142857143" y="83">Kotlin: 14.29%</text><rect fill="#33FFF5" height="15" width="10.7143" x="10" y="90" /><text fill="#33FFF5" font-family="Arial" font-size="15px" x="30.714285714285715" y="103">C: 7.14%</text><rect fill="#FF33A1" height="15" width="5.3571" x="10" y="110" /><text fill="#FF33A1" font-family="Arial" font-size="15px" x="25.357142857142858" y="123">Makefile: 3.57%</text><rect fill="#A1FF33" height="15" width="5.3571" x="10" y="130" /><text fill="#A1FF33" font-family="Arial" font-size="15px" x="25.357142857142858" y="143">JavaScript: 3.57%</text><rect fill="#FF5733" height="15" width="42.8571" x="10" y="170" /><rect fill="#33FF57" height="15" width="32.1429" x="52.8571" y="170" /><rect fill="#3357FF" height="15" width="32.1429" x="85.0" y="170" /><rect fill="#F333FF" height="15" width="21.4286" x="117.1429" y="170" /><rect fill="#33FFF5" height="15" width="10.7143" x="138.5714" y="170" /><rect fill="#FF33A1" height="15" width="5.3571" x="149.2857" y="170" /><rect fill="#A1FF33" height="15" width="5.3571" x="154.6429" y="170" /></svg>