<?xml version="1.0" encoding="utf-8" ?>
<svg baseProfile="tiny" height="195" version="1.2" width="195" xmlns="http://www.w3.org/2000/svg" xmlns:ev="http://www.w3.org/2001/xml-events" xmlns:xlink="http://www.w3.org/1999/xlink"><defs /><rect fill="black" height="100%" width="100%" x="0" y="0" /><rect fill="#FF5733" height="15" width="41.3793" x="10" y="10" /><text fill="#FF5733" font-family="Arial" font-size="15px" x="61.37931034482759" y="23">Python: 27.59%</text><rect fill="#33FF57" height="15" width="36.2069" x="10" y="30" /><text fill="#33FF57" font-family="Arial" font-size="15px" x="56.20689655172414" y="43">HTML: 24.14%</text><rect fill="#3357FF" height="15" width="31.0345" x="10" y="50" /><text fill="#3357FF" font-family="Arial" font-size="15px" x="51.03448275862069" y="63">CSS: 20.69%</text><rect fill="#F333FF" height="15" width="20.6897" x="10" y="70" /><text fill="#F333FF" font-family="Arial" font-size="15px" x="40.689655172413794" y="83">Kotlin: 13.79%</text><rect fill="#33FFF5" height="15" width="10.3448" x="10" y="90" /><text fill="#33FFF5" font-family="Arial" font-size="15px" x="30.344827586206897" y="103">C: 6.90%</text><rect fill="#FF33A1" height="15" width="5.1724" x="10" y="110" /><text fill="#FF33A1" font-family="Arial" font-size="15px" x="25.17241379310345" y="123">Makefile: 3.45%</text><rect fill="#A1FF33" height="15" width="5.1724" x="10" y="130" /><text fill="#A1FF33" font-family="Arial" font-size="15px" x="25.17241379310345" y="143">JavaScript: 3.45%</text><rect fill="#FF5733" height="15" width="41.3793" x="10" y="170" /><rect fill="#33FF57" height="15" width="36.2069" x="51.3793" y="170" /><rect fill="#3357FF" height="15" width="31.0345" x="87.5862" y="170" /><rect fill="#F333FF" height="15" width="20.6897" x="118.6207" y="170" /><rect fill="#33FFF5" height="15" width="10.3448" x="139.3103" y="170" /><rect fill="#FF33A1" height="15" width="5.1724" x="149.6552" y="170" /><rect fill="#A1FF33" height="15" width="5.1724" x="154.8276" y="170" /></svg>